<?xml version="1.0" encoding="UTF-8" standalone="no"?>
<!-- Generator: Adobe Illustrator 15.0.0, SVG Export Plug-In . SVG Version: 6.00 Build 0)  -->

<svg
   xmlns:dc="http://purl.org/dc/elements/1.1/"
   xmlns:cc="http://creativecommons.org/ns#"
   xmlns:rdf="http://www.w3.org/1999/02/22-rdf-syntax-ns#"
   xmlns:svg="http://www.w3.org/2000/svg"
   xmlns="http://www.w3.org/2000/svg"
   xmlns:sodipodi="http://sodipodi.sourceforge.net/DTD/sodipodi-0.dtd"
   xmlns:inkscape="http://www.inkscape.org/namespaces/inkscape"
   version="1.1"
   id="Layer_1"
   x="0px"
   y="0px"
   width="24px"
   height="24px"
   viewBox="0 0 24 24"
   enable-background="new 0 0 24 24"
   xml:space="preserve"
   inkscape:version="0.91 r"
   sodipodi:docname="dislike.svg"><metadata
     id="metadata4416"><rdf:RDF><cc:Work
         rdf:about=""><dc:format>image/svg+xml</dc:format><dc:type
           rdf:resource="http://purl.org/dc/dcmitype/StillImage" /><dc:title></dc:title></cc:Work></rdf:RDF></metadata><defs
     id="defs4414" /><sodipodi:namedview
     pagecolor="#ffffff"
     bordercolor="#666666"
     borderopacity="1"
     objecttolerance="10"
     gridtolerance="10"
     guidetolerance="10"
     inkscape:pageopacity="0"
     inkscape:pageshadow="2"
     inkscape:window-width="1920"
     inkscape:window-height="1021"
     id="namedview4412"
     showgrid="false"
     inkscape:zoom="9.8333333"
     inkscape:cx="-3.1525424"
     inkscape:cy="12"
     inkscape:window-x="-6"
     inkscape:window-y="31"
     inkscape:window-maximized="1"
     inkscape:current-layer="Layer_1" /><path
     fill="none"
     d="M0,0h24v24H0V0z"
     id="path4398" /><rect
     x="-1.855"
     y="10.461"
     transform="matrix(0.7071 0.7071 -0.7071 0.7071 11.8882 -4.6973)"
     width="26.939"
     height="3.083"
     id="rect4400"
     style="fill:#c0c0c0;fill-opacity:1" /><g
     id="g4402"
     style="fill:#c0c0c0;fill-opacity:1"><path
       d="M17,5c0-1.1-0.9-2-2-2H9.167L17,10.833V5z"
       id="path4404"
       style="fill:#c0c0c0;fill-opacity:1" /><polygon
       points="23,15 23,3 19,3 19,12.833 21.168,15  "
       id="polygon4406"
       style="fill:#c0c0c0;fill-opacity:1" /><path
       d="M4.16,4.22l-3.02,7.05C1.05,11.5,1,11.74,1,12v1.91l0.01,0.01L1,14c0,1.1,0.9,2,2,2h6.31l-0.95,4.57l-0.03,0.32   c0,0.409,0.17,0.789,0.44,1.06L9.83,23l6.59-6.59c0.32-0.321,0.521-0.755,0.563-1.234L5.06,3.254   C4.662,3.469,4.336,3.798,4.16,4.22z"
       id="path4408"
       style="fill:#c0c0c0;fill-opacity:1" /><polygon
       display="none"
       points="24.396,18.229 21.168,15 19,12.833 17,10.833 9.167,3 5.346,-0.82 3.166,1.36 5.06,3.254    16.982,15.176 22.215,20.408  "
       id="polygon4410"
       style="fill:#c0c0c0;fill-opacity:1" /></g></svg>