<?xml version="1.0" encoding="UTF-8" standalone="no"?>
<!-- Generator: Adobe Illustrator 15.0.0, SVG Export Plug-In . SVG Version: 6.00 Build 0)  -->

<svg
   xmlns:dc="http://purl.org/dc/elements/1.1/"
   xmlns:cc="http://creativecommons.org/ns#"
   xmlns:rdf="http://www.w3.org/1999/02/22-rdf-syntax-ns#"
   xmlns:svg="http://www.w3.org/2000/svg"
   xmlns="http://www.w3.org/2000/svg"
   xmlns:sodipodi="http://sodipodi.sourceforge.net/DTD/sodipodi-0.dtd"
   xmlns:inkscape="http://www.inkscape.org/namespaces/inkscape"
   version="1.1"
   id="Layer_1"
   x="0px"
   y="0px"
   width="24px"
   height="24px"
   viewBox="0 0 24 24"
   enable-background="new 0 0 24 24"
   xml:space="preserve"
   inkscape:version="0.91 r"
   sodipodi:docname="like.svg"><sodipodi:namedview
     pagecolor="#ffffff"
     bordercolor="#666666"
     borderopacity="1"
     objecttolerance="10"
     gridtolerance="10"
     guidetolerance="10"
     inkscape:pageopacity="0"
     inkscape:pageshadow="2"
     inkscape:window-width="1920"
     inkscape:window-height="1021"
     id="namedview21"
     showgrid="false"
     inkscape:zoom="11.313709"
     inkscape:cx="-17.340999"
     inkscape:cy="30.397298"
     inkscape:window-x="-6"
     inkscape:window-y="31"
     inkscape:window-maximized="1"
     inkscape:current-layer="Layer_1" /><metadata
     id="metadata25"><rdf:RDF><cc:Work
         rdf:about=""><dc:format>image/svg+xml</dc:format><dc:type
           rdf:resource="http://purl.org/dc/dcmitype/StillImage" /><dc:title></dc:title></cc:Work></rdf:RDF></metadata><defs
     id="defs23" /><path
     id="path3"
     d="M0,0h24v24H0V0z"
     fill="none"
     display="none" /><line
     id="line5"
     y2="22.906"
     x2="20.109"
     y1="3.906"
     x1="1.109"
     stroke-miterlimit="10"
     stroke-width="3"
     stroke="#c0c0c0"
     fill="none"
     display="none" /><line
     id="line7"
     y2="20.771"
     x2="22.203"
     y1="1.773"
     x1="3.202"
     stroke-miterlimit="10"
     stroke-width="3"
     stroke="#c0c0c0"
     fill="none"
     display="none" /><g
     id="g9"
     style="fill:#c0c0c0;fill-opacity:1"><rect
       id="rect11"
       height="12"
       width="4"
       y="9"
       x="1"
       style="fill:#c0c0c0;fill-opacity:1" /><path
       id="path13"
       d="M22.859,12.73C22.95,12.5,23,12.26,23,12v-1.91l-0.01-0.01L23,10c0-1.1-0.9-2-2-2h-6.311l0.951-4.57l0.029-0.32   c0-0.41-0.17-0.79-0.439-1.06L14.17,1L9.415,5.762l11.502,11.502L22.859,12.73z"
       style="fill:#c0c0c0;fill-opacity:1" /><path
       id="path15"
       d="M7,9v10c0,1.1,0.9,2,2,2h9c0.629,0,1.187-0.288,1.552-0.74L7.283,7.991C7.106,8.289,7,8.631,7,9z"
       style="fill:#c0c0c0;fill-opacity:1" /><polygon
       id="polygon17"
       points="23.368,19.716 20.917,17.265 9.415,5.762 4.318,0.666 2.137,2.845 7.283,7.991 19.552,20.26    21.188,21.896  "
       display="none"
       style="fill:#c0c0c0;fill-opacity:1" /></g><rect
     id="rect19"
     height="3.083"
     width="26.94"
     transform="matrix(0.7071 0.7071 -0.7071 0.7071 12.5738 -3.5856)"
     y="11.844"
     x="-2.855"
     style="fill:#c0c0c0;fill-opacity:1" /></svg>